<?xml version="1.0" standalone="no"?>
<!DOCTYPE svg PUBLIC "-//W3C//DTD SVG 20010904//EN"
 "http://www.w3.org/TR/2001/REC-SVG-20010904/DTD/svg10.dtd">
<svg version="1.0" xmlns="http://www.w3.org/2000/svg"
 width="351.000000pt" height="351.000000pt" viewBox="0 0 351.000000 351.000000"
 preserveAspectRatio="xMidYMid meet">

<g transform="translate(0.000000,351.000000) scale(0.100000,-0.100000)"
fill="#000000" stroke="none">
<path d="M620 3504 c0 -3 39 -53 86 -111 80 -98 85 -108 79 -140 -5 -26 -14
-38 -41 -50 -18 -9 -34 -20 -34 -25 0 -5 16 -16 36 -25 34 -17 35 -19 28 -57
l-7 -41 57 54 c44 43 54 59 50 77 -3 12 2 36 11 54 20 38 16 44 -18 31 -25
-10 -31 -5 -129 114 -91 111 -118 139 -118 119z"/>
<path d="M756 3498 c22 -37 158 -208 189 -238 21 -20 -10 28 -69 108 -59 78
-111 142 -117 142 -6 0 -7 -6 -3 -12z"/>
<path d="M1055 3493 c3 -10 35 -69 71 -131 l65 -112 -96 -92 c-153 -146 -251
-315 -291 -498 -8 -41 -17 -81 -20 -88 -6 -20 -585 280 -758 393 -27 18 -28
18 -25 0 4 -19 56 -53 234 -152 130 -72 382 -198 476 -237 l67 -28 -6 -127 -5
-127 186 -112 186 -112 195 -6 c108 -4 196 -9 196 -11 0 -2 -13 -30 -30 -63
-34 -67 -66 -178 -76 -262 -3 -32 -10 -58 -14 -58 -5 0 -40 -43 -80 -95 -72
-97 -122 -140 -175 -151 -28 -5 -32 -3 -44 31 -7 21 -28 54 -46 74 l-33 36 9
105 c11 131 -4 195 -60 251 -63 64 -142 71 -228 23 l-41 -24 -49 22 c-65 29
-162 30 -219 1 -44 -23 -104 -85 -128 -132 -19 -36 -18 -35 -183 -57 -73 -10
-133 -22 -133 -26 0 -11 4 -11 152 12 72 11 133 19 135 16 2 -2 1 -15 -2 -28
-6 -24 -14 -27 -146 -49 -76 -13 -139 -27 -139 -31 0 -11 9 -10 148 16 68 12
124 20 126 17 2 -3 5 -35 7 -70 l4 -64 -120 -33 c-66 -18 -131 -37 -145 -43
-62 -25 24 -9 149 28 l132 38 14 -34 c23 -54 39 -113 33 -119 -3 -3 -77 -30
-164 -60 -196 -67 -191 -65 -179 -70 6 -3 88 22 181 53 l170 58 47 -52 c45
-49 93 -79 252 -157 33 -16 79 -37 103 -46 l44 -17 -29 -18 c-15 -10 -71 -53
-123 -96 -154 -125 -250 -201 -333 -264 -43 -32 -75 -60 -73 -62 7 -7 145 96
371 276 145 116 207 160 227 161 55 0 127 22 175 52 26 17 65 33 87 35 53 6
134 37 189 73 50 34 98 88 146 168 18 28 35 52 39 52 3 0 62 -22 131 -49 125
-48 128 -49 321 -65 107 -9 215 -18 240 -19 l45 -2 12 104 c7 57 14 106 17
108 10 10 102 -51 159 -106 32 -30 81 -86 109 -123 27 -37 53 -68 57 -68 4 0
13 -18 20 -41 17 -55 71 -112 134 -140 42 -19 70 -24 142 -24 120 0 169 19
261 104 39 36 91 82 116 101 58 44 102 109 124 181 l17 57 46 -14 c55 -16 81
-18 81 -4 0 6 -7 10 -15 10 -7 0 -37 5 -65 11 l-50 11 0 86 c0 184 -74 324
-200 381 -61 28 -188 29 -245 2 -47 -22 -95 -71 -122 -125 l-20 -39 -70 -1
c-57 -1 -76 -6 -106 -26 -52 -35 -80 -96 -75 -165 1 -30 0 -55 -4 -55 -5 0 -8
4 -8 9 0 12 -98 86 -159 120 l-53 28 88 54 c212 130 358 318 415 534 30 115
30 299 0 415 -67 257 -233 455 -491 583 l-126 62 8 40 c10 56 10 105 -1 105
-5 0 -11 -29 -13 -65 -2 -35 -6 -67 -9 -70 -3 -3 -30 3 -60 13 -101 35 -190
47 -339 46 -122 -1 -160 -5 -240 -27 -52 -14 -103 -28 -112 -32 -11 -5 -18 -3
-18 5 0 20 -52 130 -61 130 -10 0 1 -31 31 -89 11 -22 20 -44 20 -50 0 -5 -18
-16 -40 -25 -22 -9 -69 -33 -103 -54 l-63 -39 -23 41 c-12 23 -43 80 -68 129
-24 48 -49 87 -55 87 -6 0 -7 -8 -3 -17z m977 -127 c222 -56 383 -181 477
-371 79 -160 103 -312 77 -485 -23 -148 -55 -226 -139 -340 -52 -70 -86 -102
-227 -209 -63 -49 -135 -109 -158 -135 -69 -75 -112 -189 -112 -298 l0 -40
-52 5 c-29 3 -127 11 -218 17 -91 6 -179 13 -195 16 l-30 4 7 118 c17 279 112
455 343 637 147 115 195 180 215 285 11 60 1 139 -24 189 -39 74 -141 134
-251 146 l-50 6 39 -15 c21 -8 46 -12 55 -9 11 4 10 1 -4 -9 -11 -8 -41 -17
-67 -20 -68 -8 -166 -58 -220 -114 -84 -86 -136 -213 -153 -376 l-6 -58 -68 0
c-37 0 -156 3 -264 7 l-197 6 0 66 c0 212 73 443 191 602 139 189 326 313 561
374 134 35 336 35 470 1z m550 -307 c71 -72 95 -105 132 -181 57 -117 73 -181
22 -89 -39 70 -73 111 -92 111 -6 0 -17 14 -24 31 -22 52 -88 148 -143 207
-46 49 -48 53 -17 32 19 -13 74 -63 122 -111z m-749 -196 c-7 -2 -21 -2 -30 0
-10 3 -4 5 12 5 17 0 24 -2 18 -5z m147 -276 c0 -37 -37 -112 -77 -157 -24
-27 -81 -78 -126 -113 -45 -36 -104 -88 -131 -117 l-49 -52 5 98 c10 186 81
296 221 340 57 17 157 18 157 1z m1165 -648 c57 -16 136 -99 165 -175 30 -81
38 -218 17 -301 -22 -85 -54 -131 -134 -197 -37 -31 -87 -72 -110 -92 -39 -33
-48 -36 -124 -41 -57 -4 -80 -3 -76 5 4 6 0 8 -10 6 -25 -6 -80 30 -103 68
-12 21 -20 51 -20 80 0 39 4 50 31 72 17 14 37 26 45 26 9 0 13 4 10 9 -10 16
34 61 61 61 14 0 66 -18 115 -40 50 -22 85 -33 78 -25 -23 27 -115 83 -160 96
-51 15 -60 24 -59 59 1 23 2 23 9 -5 7 -28 8 -28 9 12 1 32 6 45 22 54 32 17
99 4 186 -36 42 -19 78 -33 81 -31 8 9 -94 66 -156 87 -35 12 -76 19 -91 17
-28 -4 -28 -3 -19 25 6 16 25 38 42 49 40 25 149 20 219 -10 82 -37 50 1 -38
43 -36 18 -67 25 -111 25 -79 0 -133 -35 -159 -104 -16 -41 -20 -44 -38 -35
-17 10 -19 18 -14 63 7 63 39 141 75 180 56 60 159 82 257 55z m-2490 -39 c80
-35 125 -104 96 -149 -7 -11 -18 -8 -57 15 -39 23 -60 29 -104 28 -60 -1 -139
-34 -174 -73 -18 -20 -15 -19 27 4 95 54 219 40 272 -29 32 -42 32 -46 -7 -46
-48 -1 -131 -32 -188 -71 -28 -19 -50 -37 -50 -40 0 -3 34 11 75 32 118 60
201 61 240 5 21 -28 20 -76 -1 -76 -30 0 -135 -63 -165 -99 -40 -49 -21 -50
43 -2 71 55 109 67 160 52 63 -19 95 -94 69 -163 -10 -26 -69 -88 -84 -88 -6
0 -2 9 8 20 11 12 13 20 6 20 -7 0 -9 5 -5 11 5 8 8 8 14 0 10 -17 33 12 28
36 -2 15 -10 11 -41 -21 -20 -21 -29 -35 -20 -32 15 5 15 3 -2 -9 -11 -9 -25
-13 -33 -10 -7 2 -11 1 -8 -4 11 -18 -20 -31 -52 -22 -49 14 -238 121 -266
150 -23 24 -65 122 -102 240 -22 70 -18 128 15 196 65 136 177 181 306 125z
m279 9 c59 -47 84 -154 51 -219 -37 -72 -163 -81 -194 -14 -8 19 -5 38 14 96
14 40 25 74 25 76 0 1 -8 -1 -17 -6 -14 -7 -23 -3 -41 19 l-23 29 33 20 c45
27 117 27 152 -1z m1829 -145 c11 -4 13 -13 7 -40 -5 -19 -14 -41 -20 -49 -10
-12 -5 -23 27 -58 91 -98 50 -198 -75 -184 -78 8 -113 66 -115 189 -1 43 3 64
19 85 35 48 110 75 157 57z m-488 -73 c35 -16 88 -45 118 -65 52 -35 171 -149
190 -181 5 -9 4 -38 -3 -71 l-12 -55 -28 43 c-51 76 -150 165 -232 207 -42 22
-73 43 -70 47 4 4 2 4 -5 0 -16 -9 -108 15 -93 24 7 4 10 13 6 18 -4 6 -4 23
0 37 9 34 46 33 129 -4z m-1292 -126 c-19 -58 -52 -81 -95 -69 -22 7 -34 17
-39 37 -7 26 -6 27 32 27 42 0 99 23 99 40 0 6 4 10 9 10 6 0 3 -20 -6 -45z
m430 -23 c-1 -37 -2 -72 -2 -78 -1 -6 -24 -41 -52 -78 -52 -70 -124 -130 -145
-122 -7 3 -33 -2 -59 -10 -41 -12 -46 -12 -41 1 3 8 8 37 12 63 6 48 7 50 59
71 59 25 117 78 177 164 23 31 44 57 47 57 3 0 5 -30 4 -68z m-386 -69 c6 -15
7 -14 14 3 11 31 39 -45 39 -108 0 -106 -34 -161 -125 -204 -52 -25 -137 -32
-165 -14 -12 8 -11 10 6 10 11 0 41 13 66 29 82 52 104 134 63 234 -4 10 -3
17 4 17 6 0 11 -8 11 -17 1 -14 4 -13 14 6 l13 23 6 -32 c4 -17 5 -44 2 -58
-5 -26 -5 -26 9 3 9 17 15 51 16 78 0 46 15 63 27 30z m1656 -100 c13 -4 17
-16 17 -52 0 -108 55 -188 152 -222 l53 -19 -50 6 c-155 17 -235 89 -235 211
0 69 9 96 29 87 9 -3 24 -9 34 -11z m327 -253 c-8 -5 -19 -10 -25 -10 -5 0 -3
5 5 10 8 5 20 10 25 10 6 0 3 -5 -5 -10z"/>
<path d="M1149 3083 c-13 -16 -12 -17 4 -4 9 7 17 15 17 17 0 8 -8 3 -21 -13z"/>
<path d="M2188 2903 c-51 -48 -98 -112 -98 -134 0 -7 26 12 58 42 31 30 72 61
91 69 32 13 35 12 55 -12 12 -14 26 -34 32 -44 7 -10 15 -16 19 -12 11 11 -3
69 -25 106 -30 49 -68 44 -132 -15z"/>
<path d="M2169 2667 c-19 -12 -48 -47 -66 -76 -103 -172 -48 -441 91 -441 70
0 153 83 191 189 48 138 16 292 -73 340 -36 19 -106 13 -143 -12z m147 -38
c40 -38 57 -99 52 -188 -11 -190 -147 -323 -238 -233 -106 106 -6 376 124 333
l31 -11 -24 20 c-42 36 -95 19 -150 -47 l-31 -38 15 45 c45 132 148 187 221
119z"/>
<path d="M2228 2451 c6 -43 -14 -73 -46 -69 -24 3 -27 7 -27 45 0 22 -3 39 -8
36 -37 -23 -53 -162 -23 -207 54 -83 163 1 165 127 1 39 -13 76 -33 89 -22 15
-32 8 -28 -21z"/>
<path d="M2085 2131 c11 -18 -37 -33 -84 -27 -36 5 -43 4 -33 -6 19 -18 109
-15 129 4 15 16 11 38 -8 38 -6 0 -8 -4 -4 -9z"/>
<path d="M2820 1365 c0 -11 64 -97 89 -119 29 -27 28 0 -1 44 -23 33 -88 89
-88 75z"/>
<path d="M826 1343 c-13 -21 -40 -55 -59 -75 -19 -21 -31 -38 -27 -38 18 0 91
78 105 113 8 20 13 37 10 37 -2 0 -16 -17 -29 -37z"/>
<path d="M2322 3453 c-15 -73 -8 -80 12 -12 18 60 19 69 8 69 -4 0 -13 -26
-20 -57z"/>
<path d="M2551 3423 c-34 -146 -18 -114 35 70 3 9 1 17 -4 17 -6 0 -20 -39
-31 -87z"/>
<path d="M2724 3473 c-52 -124 -103 -251 -108 -273 -8 -28 65 119 94 190 10
25 26 62 34 83 9 21 12 37 6 37 -5 0 -17 -17 -26 -37z"/>
<path d="M2850 3502 c0 -4 -45 -92 -101 -196 -55 -104 -98 -190 -95 -193 2 -2
17 17 32 44 15 26 42 73 59 103 89 153 135 250 120 250 -8 0 -15 -4 -15 -8z"/>
<path d="M2937 3383 c-43 -69 -75 -128 -73 -131 6 -5 166 236 166 250 0 24
-22 -5 -93 -119z"/>
<path d="M136 3382 c415 -370 449 -399 569 -487 44 -32 86 -63 93 -68 6 -5 12
-7 12 -4 0 3 -57 52 -127 110 -71 57 -191 159 -268 226 -170 149 -270 231
-281 231 -4 0 -4 -4 2 -8z"/>
<path d="M3455 3250 c-21 -22 -34 -40 -27 -40 14 0 82 59 82 71 0 18 -17 8
-55 -31z"/>
<path d="M2940 3178 c-32 -49 -39 -54 -85 -62 -27 -5 -52 -10 -54 -12 -2 -2
11 -23 29 -46 l34 -41 -22 -40 -22 -39 64 7 c54 5 68 3 97 -14 19 -12 37 -21
42 -21 4 0 7 22 7 49 0 45 3 53 35 77 19 14 35 30 35 34 0 4 -20 13 -45 20
-47 13 -45 10 -78 133 -1 4 -18 -16 -37 -45z"/>
<path d="M3415 3152 c-44 -42 -158 -151 -253 -241 -94 -91 -170 -166 -167
-169 10 -10 507 449 513 475 7 26 -14 11 -93 -65z"/>
<path d="M565 3161 c30 -35 132 -132 158 -149 16 -11 14 -6 -8 17 -39 42 -176
163 -150 132z"/>
<path d="M0 3007 c0 -20 576 -343 713 -400 54 -23 45 -11 -15 19 -29 15 -150
81 -268 149 -403 229 -430 244 -430 232z"/>
<path d="M3397 2654 c-60 -36 -106 -68 -103 -71 2 -3 47 20 100 51 52 31 100
56 105 56 6 0 11 7 11 15 0 8 -1 15 -3 15 -1 0 -51 -30 -110 -66z"/>
<path d="M6 2661 c12 -11 234 -54 242 -47 3 3 3 6 0 6 -3 0 -56 11 -118 25
-125 28 -139 29 -124 16z"/>
<path d="M0 2587 c0 -21 570 -208 627 -206 13 0 -610 219 -624 219 -2 0 -3 -6
-3 -13z"/>
<path d="M3136 2440 c-25 -29 -32 -32 -67 -26 -21 3 -39 4 -39 1 0 -3 10 -19
21 -35 21 -27 21 -30 5 -54 -9 -14 -16 -28 -16 -31 0 -3 20 -5 43 -5 44 0 86
-27 70 -45 -5 -4 1 -5 12 -2 37 11 100 21 110 18 6 -2 61 10 123 25 75 19 112
33 112 42 0 8 -6 12 -13 9 -7 -3 -76 -19 -153 -36 -76 -18 -147 -34 -156 -37
-14 -4 -17 0 -16 21 2 18 13 33 37 47 36 22 35 26 -15 56 -6 4 -15 24 -20 45
l-9 39 -29 -32z"/>
<path d="M120 2379 c0 -5 3 -9 8 -9 4 0 59 -9 122 -20 133 -23 228 -27 115 -4
-138 27 -245 41 -245 33z"/>
<path d="M0 2332 c0 -7 192 -42 229 -42 35 0 -4 12 -98 30 -113 22 -131 24
-131 12z"/>
<path d="M576 2280 c-2 -8 -8 -28 -13 -45 -6 -22 -21 -36 -51 -50 -23 -11 -42
-23 -42 -27 0 -4 18 -19 39 -33 33 -20 40 -31 43 -61 l3 -36 29 23 c25 20 32
21 60 11 45 -16 45 -16 36 25 -8 32 -5 41 21 74 16 20 29 39 29 42 0 3 -19 8
-42 12 -32 5 -51 16 -75 43 -23 27 -33 33 -37 22z"/>
<path d="M0 2222 c0 -9 133 -23 210 -21 l45 1 -45 8 c-87 14 -210 21 -210 12z"/>
<path d="M0 2167 c0 -11 27 -15 122 -20 140 -8 333 -9 327 -2 -3 2 -86 9 -184
15 -99 5 -199 13 -222 16 -33 4 -43 2 -43 -9z"/>
<path d="M3382 2118 c-67 -9 -144 -24 -170 -33 -47 -15 -46 -15 68 -10 144 7
230 16 230 24 0 3 -26 5 -57 4 l-58 -2 53 9 c50 7 71 16 61 23 -2 2 -59 -5
-127 -15z m-9 -25 c-7 -2 -21 -2 -30 0 -10 3 -4 5 12 5 17 0 24 -2 18 -5z"/>
<path d="M42 1993 c27 -2 69 -2 95 0 27 2 5 3 -47 3 -52 0 -74 -1 -48 -3z"/>
<path d="M3420 1913 c-64 -8 -50 -18 20 -15 39 2 70 8 70 13 0 9 -24 9 -90 2z"/>
<path d="M40 1850 l-45 -7 45 -1 c25 0 56 4 70 8 l25 8 -25 0 c-14 -1 -45 -4
-70 -8z"/>
<path d="M3400 1413 c0 -5 20 -14 45 -21 54 -14 65 -15 65 -3 0 5 -18 11 -39
15 -22 3 -46 9 -55 12 -9 3 -16 2 -16 -3z"/>
<path d="M1569 1356 c-137 -37 -238 -154 -254 -295 -4 -31 -13 -74 -22 -96 -8
-22 -21 -71 -27 -110 -12 -68 -13 -70 -46 -76 -42 -9 -70 -41 -71 -83 0 -42
-39 -71 -106 -79 -111 -13 -219 -91 -270 -196 -24 -48 -28 -68 -28 -143 0 -66
4 -91 16 -103 32 -32 169 -47 378 -41 110 3 199 10 206 16 19 16 891 7 970 -9
79 -16 246 -18 420 -6 113 8 130 11 90 16 -48 6 -47 6 25 9 l75 3 -55 6 c-38
4 -49 8 -37 14 11 4 24 4 30 1 7 -3 4 1 -5 9 -13 10 -18 29 -18 69 0 31 -7 75
-15 99 -37 107 -146 213 -231 226 -52 8 -84 38 -84 79 0 18 -5 44 -11 58 -14
29 -73 56 -124 56 -29 0 -37 5 -51 33 -9 17 -36 62 -60 100 l-44 67 6 103 7
102 -119 47 c-160 63 -286 104 -373 123 -85 18 -110 18 -172 1z m198 -58 c34
-12 60 -25 57 -29 -2 -4 7 -24 21 -45 35 -51 48 -108 42 -180 -2 -34 0 -68 5
-75 5 -9 6 -3 2 16 -4 23 -3 26 5 15 10 -13 11 -13 11 0 0 13 1 13 10 0 6 -10
8 -1 5 28 -2 25 0 40 6 36 5 -3 8 8 5 28 -16 118 -16 123 -7 96 16 -50 20
-104 11 -166 -10 -70 -54 -177 -70 -167 -5 3 -7 0 -4 -8 13 -34 -112 -107
-190 -112 -47 -2 -48 -2 -11 5 22 4 36 8 30 9 -5 1 4 13 20 27 l30 25 -40 -17
c-53 -23 -169 -24 -211 -1 -123 65 -174 228 -114 365 27 63 102 134 163 155
63 23 152 21 224 -5z m96 -49 c4 -13 10 -18 17 -14 9 6 9 10 -1 16 -8 5 -9 9
-3 9 17 0 50 -28 41 -36 -4 -4 -7 -2 -7 4 0 6 -7 9 -15 6 -18 -7 -20 -25 -3
-21 6 1 13 -7 15 -18 3 -16 2 -17 -6 -5 -10 13 -11 13 -11 0 0 -16 -42 46 -46
68 -4 21 13 13 19 -9z m202 -45 c69 -25 125 -50 125 -55 0 -5 -2 -9 -4 -9 -13
0 -241 91 -250 100 -16 16 -3 13 129 -36z m-153 -97 c-6 -23 -8 -20 -16 28 -6
38 -6 39 7 15 7 -14 11 -33 9 -43z m199 -74 c65 -61 141 -164 179 -244 l30
-64 -52 -11 c-49 -9 -54 -9 -62 10 -50 114 -81 169 -113 202 -21 21 -27 29
-13 19 l25 -20 -19 23 c-11 12 -25 22 -33 22 -7 0 -12 3 -11 8 1 4 -4 19 -11
33 -14 28 -2 69 20 69 5 0 32 -21 60 -47z m-204 -5 c-3 -8 -6 -5 -6 6 -1 11 2
17 5 13 3 -3 4 -12 1 -19z m-562 -205 c1 -29 -2 -53 -7 -53 -4 0 -7 -5 -5 -12
1 -6 -7 -14 -17 -16 -18 -4 -19 1 -14 81 3 47 9 91 14 98 11 19 26 -33 29 -98z
m45 -49 c0 -24 -5 -34 -15 -34 -12 0 -15 10 -14 45 2 35 5 42 16 33 7 -6 13
-26 13 -44z m-144 -33 c-10 -15 44 -24 154 -26 58 -1 115 -5 128 -9 24 -8 30
-44 10 -64 -20 -20 -100 -14 -176 13 -39 14 -94 26 -122 27 -43 2 -50 5 -50
23 0 12 5 26 12 33 14 14 52 16 44 3z m1212 -23 c7 -7 12 -24 12 -39 0 -23 -5
-29 -32 -34 -18 -4 -67 -17 -109 -30 -42 -13 -103 -27 -136 -30 -55 -7 -62 -5
-72 13 -15 27 -14 85 1 100 17 17 33 15 19 -2 -10 -11 -8 -16 7 -20 34 -11
262 28 262 45 0 13 34 11 48 -3z m-748 -63 c57 -13 108 -16 217 -13 l141 4 6
-28 c4 -18 -4 -48 -24 -90 -35 -74 -53 -162 -48 -230 2 -37 0 -48 -12 -49 -8
0 1 -5 20 -11 19 -5 37 -13 40 -17 3 -5 12 -11 20 -14 11 -4 9 -6 -5 -6 -12
-1 -25 3 -31 9 -5 5 -20 7 -33 3 -17 -4 -20 -8 -9 -15 8 -6 3 -7 -17 -2 -16 4
-54 7 -83 5 -40 -1 -52 1 -46 10 5 9 -1 10 -21 5 -19 -5 -31 -3 -37 6 -6 11
-10 10 -17 -2 -5 -8 -7 -18 -5 -22 3 -4 -1 -8 -9 -8 -8 0 -18 7 -21 16 -3 8
-10 12 -16 9 -6 -4 -8 -10 -5 -14 2 -5 -42 -8 -99 -7 -87 1 -99 3 -73 12 64
21 97 36 97 45 0 5 7 9 15 9 8 0 15 7 15 15 0 12 17 15 88 17 l87 2 -81 3 -81
4 -6 72 c-7 84 -25 141 -66 207 -35 56 -33 105 3 97 11 -3 55 -13 96 -22z
m-336 -33 c27 -12 47 -24 45 -27 -3 -2 -34 4 -70 15 -71 22 -151 29 -189 17
-24 -8 -24 -8 -5 8 29 24 154 16 219 -13z m-55 -31 c20 -11 45 -29 56 -42 18
-21 16 -20 -30 6 -27 16 -77 37 -110 47 l-60 18 54 -5 c30 -4 70 -14 90 -24z
m1181 8 c11 -7 4 -9 -25 -4 -41 6 -148 -21 -209 -52 -15 -8 -25 -10 -21 -4 28
46 213 90 255 60z m-1050 -30 c0 -20 -15 -26 -25 -9 -3 6 -2 10 4 10 6 0 7 7
4 17 -4 11 -3 14 5 9 7 -4 12 -16 12 -27z m-236 -14 c36 -17 96 -87 102 -117
2 -7 10 -37 18 -65 8 -29 10 -53 5 -53 -5 0 -9 7 -9 15 0 47 -106 185 -143
185 -4 0 5 -12 22 -26 42 -35 110 -172 91 -184 -26 -16 -215 -33 -309 -27 -83
4 -211 30 -211 42 0 2 9 29 21 60 27 72 99 146 171 174 67 27 183 25 242 -4z
m86 -20 c25 -30 5 -23 -35 12 -37 32 -37 34 -9 20 17 -9 36 -23 44 -32z m115
15 c10 -11 16 -20 13 -20 -3 0 -13 9 -23 20 -10 11 -16 20 -13 20 3 0 13 -9
23 -20z m957 -5 c-24 -14 -58 -35 -75 -47 l-32 -22 25 29 c14 15 43 36 65 46
57 27 67 23 17 -6z m-277 -48 c-15 -31 -29 -72 -32 -90 l-5 -34 87 -32 c48
-17 90 -30 92 -27 2 2 6 21 7 42 2 22 4 43 5 47 1 5 6 5 13 1 7 -4 8 -3 4 4
-4 7 15 33 43 61 40 39 64 54 117 70 80 25 104 26 174 5 39 -12 66 -29 105
-67 53 -53 96 -140 79 -157 -37 -37 -299 -62 -434 -41 -41 7 -76 14 -78 16
-10 9 50 114 85 148 20 20 31 37 25 37 -21 0 -101 -91 -118 -135 -16 -44 -19
-46 -48 -39 -42 9 -159 53 -170 64 -10 10 26 135 50 168 27 38 26 19 -1 -41z
m88 38 c-3 -9 -8 -14 -10 -11 -3 3 -2 9 2 15 9 16 15 13 8 -4z m37 0 c-9 -10
-9 -15 -1 -15 6 0 11 -4 11 -10 0 -5 -7 -10 -15 -10 -15 0 -21 31 -8 43 13 14
25 6 13 -8z m-856 -31 c3 -8 2 -12 -4 -9 -6 3 -10 10 -10 16 0 14 7 11 14 -7z
m46 6 c0 -5 -5 -10 -11 -10 -5 0 -7 5 -4 10 3 6 8 10 11 10 2 0 4 -4 4 -10z
m-70 -25 c0 -8 -4 -15 -10 -15 -5 0 -7 7 -4 15 4 8 8 15 10 15 2 0 4 -7 4 -15z
m890 -5 c0 -5 -5 -10 -11 -10 -5 0 -7 5 -4 10 3 6 8 10 11 10 2 0 4 -4 4 -10z
m28 -29 c-15 -5 -19 4 -11 24 6 18 7 18 13 -1 4 -10 3 -21 -2 -23z m-623 -113
c-10 -44 -18 -52 -74 -77 -182 -78 -532 -113 -718 -71 -50 11 -52 13 -58 51
-4 22 -5 42 -3 44 2 2 24 -3 48 -13 36 -13 81 -16 220 -16 162 0 185 2 305 31
72 17 159 42 195 56 89 34 93 34 85 -5z m510 -43 c215 -72 486 -76 638 -10 16
7 18 3 15 -36 -3 -41 -6 -45 -43 -59 -30 -10 -90 -14 -235 -15 -173 0 -204 3
-280 23 -46 13 -109 35 -140 50 -45 22 -56 32 -58 56 -3 24 -1 28 15 22 10 -4
50 -18 88 -31z m-115 -95 c0 -5 -4 -10 -10 -10 -5 0 -10 5 -10 10 0 6 5 10 10
10 6 0 10 -4 10 -10z m-207 -7 c-7 -2 -19 -2 -25 0 -7 3 -2 5 12 5 14 0 19 -2
13 -5z m160 -20 c-101 -2 -265 -2 -365 0 -101 1 -19 2 182 2 201 0 283 -1 183
-2z"/>
<path d="M1867 956 c-3 -8 2 -21 12 -30 15 -14 17 -14 17 3 0 11 -6 17 -13 14
-9 -4 -11 0 -7 11 3 9 4 16 1 16 -3 0 -7 -6 -10 -14z"/>
<path d="M1460 856 c0 -2 8 -10 18 -17 15 -13 16 -12 3 4 -13 16 -21 21 -21
13z"/>
<path d="M1708 753 c7 -3 16 -2 19 1 4 3 -2 6 -13 5 -11 0 -14 -3 -6 -6z"/>
<path d="M1887 293 c18 -2 50 -2 70 0 21 2 7 4 -32 4 -38 0 -55 -2 -38 -4z"/>
<path d="M1684 273 c10 -10 306 -11 300 -1 -3 4 -73 8 -156 8 -83 0 -148 -3
-144 -7z"/>
<path d="M1888 243 c7 -3 16 -2 19 1 4 3 -2 6 -13 5 -11 0 -14 -3 -6 -6z"/>
<path d="M1933 243 c9 -2 23 -2 30 0 6 3 -1 5 -18 5 -16 0 -22 -2 -12 -5z"/>
<path d="M1875 220 c-3 -5 -1 -10 4 -10 6 0 11 5 11 10 0 6 -2 10 -4 10 -3 0
-8 -4 -11 -10z"/>
<path d="M1935 220 c3 -5 12 -7 20 -3 21 7 19 13 -6 13 -11 0 -18 -4 -14 -10z"/>
<path d="M1628 213 c7 -3 16 -2 19 1 4 3 -2 6 -13 5 -11 0 -14 -3 -6 -6z"/>
<path d="M3450 1308 c0 -4 6 -8 14 -8 8 0 21 -3 30 -6 9 -3 16 -2 16 4 0 5
-13 12 -30 14 -16 3 -30 1 -30 -4z"/>
<path d="M514 1057 c-65 -40 -172 -104 -236 -141 -65 -38 -118 -73 -118 -78 0
-5 15 -1 33 10 17 10 113 67 212 126 160 94 251 155 234 156 -3 0 -59 -33
-125 -73z"/>
<path d="M832 880 c-322 -305 -416 -399 -403 -400 8 0 71 55 140 123 69 68
194 189 276 270 83 81 146 147 142 147 -4 0 -74 -63 -155 -140z"/>
<path d="M3025 905 c50 -47 99 -91 110 -96 24 -12 -102 108 -160 152 -22 17 1
-8 50 -56z"/>
<path d="M3160 951 c37 -33 224 -161 236 -161 24 0 -121 107 -231 169 l-40 23
35 -31z"/>
<path d="M1388 143 c17 -2 47 -2 65 0 17 2 3 4 -33 4 -36 0 -50 -2 -32 -4z"/>
<path d="M1818 143 c34 -2 90 -2 125 0 34 2 6 3 -63 3 -69 0 -97 -1 -62 -3z"/>
<path d="M2037 143 c18 -2 50 -2 70 0 21 2 7 4 -32 4 -38 0 -55 -2 -38 -4z"/>
<path d="M2173 143 c9 -2 25 -2 35 0 9 3 1 5 -18 5 -19 0 -27 -2 -17 -5z"/>
</g>
</svg>
